<svg xmlns="http://www.w3.org/2000/svg" width="2282.44" height="403" viewBox="0 0 2282.44 403">
  <defs>
    <style>
      .cls-1 {
        fill: #50d294;
      }

      .cls-1, .cls-2 {
        fill-rule: evenodd;
      }
    </style>
  </defs>
  <path class="cls-1" d="M331.81,105.94a56.222,56.222,0,1,0-86.764-70.615C242.375,38,18.516,313.891,16.425,317.06a56.223,56.223,0,1,0,86.764,70.616C105.86,385,329.72,109.11,331.81,105.94ZM461.343,236.847a56.223,56.223,0,1,0-86.736-70.638c-2.7,2.694-120.271,147.612-122.376,150.806a56.223,56.223,0,1,0,86.736,70.639C341.661,384.96,459.238,240.042,461.343,236.847ZM584,66.23A56.235,56.235,0,1,1,527.765,10,56.233,56.233,0,0,1,584,66.23Zm-471.531,0A56.234,56.234,0,1,1,56.235,10,56.232,56.232,0,0,1,112.469,66.23Z" transform="translate(0 -10)"/>
  <path id="Marvin" class="cls-2" d="M855.256,395.949V101.309l68.489,294.64h67.309l68.726-294.64v294.64h64.95V21.649H1019.87L957.754,276.97,894.932,21.649H790.309v374.3h64.947ZM1259.34,181.1q9.93-7.529,27.64-7.532,26.2,0,35.66,8.809,9.435,8.808,9.44,29.489v7.149q-17.94,8.175-64.47,17.617-34.485,7.152-52.78,16.724a68.347,68.347,0,0,0-28.46,27.574q-10.155,18-10.16,40.979,0,34.727,22.32,57.448t61.05,22.723a97.485,97.485,0,0,0,41.33-8.936q19.365-8.934,36.37-26.809,0.705,2.048,2.36,8.426,3.78,14.045,6.38,21.191h65.65a162.2,162.2,0,0,1-11.92-36.383q-3.2-16.977-3.19-52.724l0.71-83.745q0-46.723-8.86-64.213t-30.58-28.851q-21.735-11.358-66.13-11.362-48.885,0-73.69,18.894t-34.95,58.213l60.22,11.745Q1249.43,188.63,1259.34,181.1Zm72.74,98.937q0,25.791-2.59,34.979a45,45,0,0,1-15.83,23.745q-16.29,12.77-34.24,12.766-16.065,0-26.45-10.979a36.584,36.584,0,0,1-10.39-26.043q0-15.32,12.98-25.277,8.505-6.128,36.14-12.51t40.38-10.979v14.3Zm194.14,32.17q0-69.187,5.55-90.894t15.23-30q9.675-8.293,23.62-8.3,14.4,0,31.17,11.745l20.55-62.554q-21.03-13.53-43.69-13.532a49.489,49.489,0,0,0-28.7,8.681q-12.63,8.683-28.46,36V124.8h-61.64v271.15h66.37V312.2Zm253.41,83.745,99.66-271.15h-68.25l-47.71,138.384q-3.78,11.488-7.08,22.978-1.425,5.621-6.85,23.235l-13.7-46.213L1688.46,124.8h-69.67l101.09,271.15h59.75ZM1986.28,88.033V21.649h-66.37V88.033h66.37Zm0,307.916V124.8h-66.37v271.15h66.37Zm296.15-168.511q0-31.405-3.66-48.256a82.1,82.1,0,0,0-12.99-30.128q-9.33-13.272-27.51-21.83a93.213,93.213,0,0,0-40.15-8.553q-49.83,0-82.66,45.958V124.8h-61.64v271.15h66.36V273.14q0-45.442,5.08-62.3a51.274,51.274,0,0,1,18.78-27.064,50.458,50.458,0,0,1,30.94-10.213q13.455,0,23.02,7.149t13.82,20.043q4.245,12.9,4.25,56.809V395.949h66.36V227.438Z" transform="translate(0 -10)"/>
</svg>
