<svg xmlns="http://www.w3.org/2000/svg" width="1903.31" height="387" viewBox="0 0 1903.31 387">
  <defs>
    <style>
      .cls-1 {
        fill: #f36;
      }

      .cls-1, .cls-2 {
        fill-rule: evenodd;
      }
    </style>
  </defs>
  <path class="cls-1" d="M698,387L457.177,0,347.083,176.921,236.986,0,0,380.828H30.827L236.986,49.535l94.683,152.154L216.353,387H698ZM457.177,49.535L650.886,360.822H461.523L362.494,201.687ZM430.7,360.822H263.466l83.615-134.366Z"/>
  <path id="Mertz" class="cls-2" d="M949.015,334.391V109l56.645,225.39h55.66L1118.16,109v225.39h53.71V48.063h-86.72l-51.37,195.313L981.828,48.063H895.3V334.391h53.711Zm386.715-43.359q-8.79,7.031-21.68,7.031-18.945,0-31.64-13.574T1269.13,246.5h137.5q1.17-63.086-25.58-93.653T1308,122.282q-41.22,0-68.16,29.2-26.955,29.2-26.96,80.762,0,43.167,20.51,71.484,25.98,35.354,80.08,35.352,34.17,0,56.93-15.723t33.3-45.8l-54.68-9.179Q1344.52,284,1335.73,291.032Zm-65.62-78.125q-0.195-22.458,11.52-35.547t29.69-13.086a37.78,37.78,0,0,1,28.52,12.4q11.715,12.407,12.3,36.231h-82.03Zm233.79,57.422q0-52.928,4.59-69.531t12.6-22.95q8-6.344,19.53-6.347,11.91,0,25.78,8.984l16.99-47.852q-17.385-10.35-36.13-10.351a43.275,43.275,0,0,0-23.73,6.641q-10.455,6.642-23.54,27.539V126.969h-50.97V334.391h54.88V270.329Zm160.74-143.36V53.727l-55.08,32.031v41.21h-25.19v43.75h25.19v90.43q0,29.1,1.76,38.672,2.145,13.476,7.71,21.387,5.58,7.909,17.49,12.89a68.732,68.732,0,0,0,26.75,4.981q24.225,0,43.36-8.2l-4.69-42.578q-14.445,5.272-22.07,5.273a15.464,15.464,0,0,1-9.27-2.734,12.073,12.073,0,0,1-4.89-6.934q-1.065-4.2-1.07-29.59V170.719h37.5v-43.75h-37.5Zm238.67,207.422V286.149h-84.96q-5.475,0-28.32,1.367l27.93-30.273,79.3-91.406V126.969H1725.77v45.508l73.25-.39q15.615-.193,25.19-0.782-9.18,9.183-28.32,31.055l-77.73,89.258v42.773h185.15Z"/>
</svg>
