<svg xmlns="http://www.w3.org/2000/svg" width="1665" height="345" viewBox="0 0 1665 345">
  <defs>
    <style>
      .cls-1 {
        fill: #ecb22e;
        stroke: #000;
        stroke-width: 1px;
        stroke-dasharray: 4 2;
      }

      .cls-1, .cls-2 {
        fill-rule: evenodd;
      }
    </style>
  </defs>
  <path id="Rounded_Rectangle_1" data-name="Rounded Rectangle 1" class="cls-1" d="M7.206,263.164c551.265,0,1112.534,19.945,1663.774-3,2.14-.5-5.8,41.525-6.37,42.81-0.54,1.882-4.49,1.214-6.71,1.623C1109.73,331.242,558.456,331.339,1.044,344.9-0.884,344.05.9,274.973,0.413,275.18c-0.48.241,4.268-11.151,6.793-12.016h0Z"/>
  <path id="D_Amore" data-name="D&apos;Amore" class="cls-2" d="M102.968,300q38.475,0,68.261-16.6a113.139,113.139,0,0,0,45.9-47.265q16.113-30.662,16.113-71.094V150.781q0-39.843-16.015-70.7T172.011,32.422q-29.2-16.8-66.895-16.8H21.132V300h81.836Zm2.148-244.531q38.278,0,58.4,24.414t20.117,70.7v15.82q-0.394,45.512-21.192,69.824t-59.668,24.317H70.546V55.469h34.57ZM305.7,0H269.569V100.781h31.055L305.7,24.414V0Zm203.32,300h51.563L452.968,15.625H408.632L301.21,300h51.367l23.047-66.211H485.78ZM430.7,75.977l41.211,117.968H389.491ZM592.811,15.625V300H642.03V206.25l-4.883-125.2L720.936,300h35.352L840.272,80.859,835.39,206.25V300h49.218V15.625H820.741L738.905,233.594,656.874,15.625H592.811ZM1169.96,149.414q-0.2-41.6-14.84-72.949t-41.51-48.047q-26.85-16.7-61.62-16.7T990.37,28.613q-26.857,16.9-41.6,48.731t-14.746,73.437V166.8q0.193,40.823,14.942,72.07t41.8,48.145q27.043,16.9,61.619,16.894,34.965,0,61.82-16.894t41.31-48.438q14.445-31.539,14.45-73.34v-15.82Zm-49.41,15.82q0,48.048-17.68,73.047t-50.49,25q-32.415,0-50.68-25.586t-18.264-72.461V148.828q0.39-45.9,18.454-71t50.1-25.1q32.82,0,50.68,25.2,17.88,25.2,17.88,72.461v14.843ZM1380.7,300h52.93v-2.536l-63.87-118.42q24.615-10.361,38.38-29.615t13.77-47.793q0-41.831-26.75-63.922-26.775-22.087-75.98-22.089h-100V300h49.41V190.625h55.08ZM1268.59,55.469h52.15q25.785,0.394,38.77,12.891t12.99,35.352q0,21.876-14.06,34.473t-39.07,12.6h-50.78V55.469ZM1635,133.984H1518.2V55.469h135.16V15.625H1468.79V300h185.94V260.547H1518.2v-87.5H1635V133.984ZM-7.774,378.613V359.082H1666.05v19.531H-7.774Z"/>
</svg>
