<svg xmlns="http://www.w3.org/2000/svg" width="1879" height="381" viewBox="0 0 1879 381">
  <defs>
    <style>
      .cls-1, .cls-2 {
        fill-rule: evenodd;
      }

      .cls-2 {
        fill: #e91c28;
      }
    </style>
  </defs>
  <path id="Abern" class="cls-1" d="M959.984,31.009H901.219L794.015,315.33h58.953l22.717-64.583H985.706l24.034,64.583h60.45ZM892.77,202.843L929.945,97.338,967.87,202.843h-75.1ZM1146.04,315.33V285.075q12.015,17.265,28.63,26.086a71.168,71.168,0,0,0,33.71,8.824q34.725,0,59.04-28.51t24.32-81.262q0-51.006-23.85-78.256t-60.27-27.25q-33.42,0-57.82,28.7V31.009h-52.76V315.33h49ZM1162,161.63q12.585-15.224,31.54-15.225,19.335,0,31.73,15.613t12.39,50.91q0,33.165-12.29,48.583t-29.76,15.419q-22.725,0-36.42-21.722-9.765-15.318-9.77-47.322Q1149.42,176.857,1162,161.63Zm274.86,110.645q-8.445,6.983-20.84,6.982a39.319,39.319,0,0,1-30.41-13.479q-12.21-13.478-12.77-37.722h132.18q1.125-62.643-24.6-93t-70.22-30.353q-39.615,0-65.52,29t-25.91,80.2q0,42.864,19.71,70.983,24.975,35.106,76.98,35.1,32.85,0,54.73-15.612t32.01-45.48l-52.57-9.116Q1445.31,265.3,1436.86,272.275ZM1373.78,194.7q-0.18-22.3,11.08-35.3a36.135,36.135,0,0,1,28.54-13q16.14,0,27.41,12.316t11.83,35.976h-78.86Zm224.74,57.02q0-52.556,4.41-69.044t12.11-22.788q7.7-6.3,18.77-6.3,11.46,0,24.79,8.922l16.33-47.517q-16.71-10.276-34.73-10.279a40.668,40.668,0,0,0-22.82,6.6q-10.035,6.6-22.62,27.346V109.362h-49V315.33h52.76V251.717Zm280.49-64.389q0-23.856-2.91-36.656a61.037,61.037,0,0,0-10.32-22.885q-7.425-10.083-21.88-16.582a76.958,76.958,0,0,0-31.91-6.5q-39.63,0-65.72,34.91V109.362h-49V315.33h52.76V222.044q0-34.52,4.04-47.323a38.982,38.982,0,0,1,14.92-20.558,41.382,41.382,0,0,1,24.6-7.758q10.7,0,18.3,5.431a30.256,30.256,0,0,1,10.99,15.224q3.375,9.8,3.37,43.153V315.33h52.76v-128Z"/>
  <path class="cls-2" d="M219.033,191.375a188.018,188.018,0,0,0,81.216,154.683,190.461,190.461,0,0,0,1.23-310.241A188.06,188.06,0,0,0,219.033,191.375Zm-26.218,0A214.1,214.1,0,0,1,277.277,21a189.437,189.437,0,0,0-86.87-21C85.248,0,0,85.29,0,190.5S85.248,381,190.407,381a189.451,189.451,0,0,0,85.522-20.309A214.066,214.066,0,0,1,192.815,191.375ZM407.033,378.431c-103.1,0-186.968-83.913-186.968-187.056S303.938,4.317,407.033,4.317,594,88.23,594,191.375,510.128,378.431,407.033,378.431Zm0-347.883c-88.637,0-160.75,72.148-160.75,160.827S318.4,352.2,407.033,352.2s160.749-72.144,160.749-160.825S495.67,30.548,407.033,30.548Z"/>
</svg>
