<svg xmlns="http://www.w3.org/2000/svg" width="1776.813" height="376" viewBox="0 0 1776.813 376">
  <defs>
    <style>
      .cls-1, .cls-2 {
        fill-rule: evenodd;
      }

      .cls-2 {
        fill: #3452ff;
      }
    </style>
  </defs>
  <path id="spinka" class="cls-1" d="M32.519,281.5q24.705,17.188,67.09,17.188,46.678,0,70.508-20.508t23.828-49.024q0-26.171-17.187-40.82-17.387-14.451-61.231-24.414t-51.269-15.43q-5.47-4.1-5.469-9.961,0-6.834,6.25-11.133,9.375-6.051,31.055-6.054,17.184,0,26.465,6.445t12.6,18.555l51.758-9.571Q179.1,109.629,158.4,95.758T95.116,81.891q-44.728,0-66.016,18.359T7.811,145.562q0,29.883,24.609,46.68Q50.191,204.355,116.6,219q14.255,3.324,18.359,7.227a14.414,14.414,0,0,1,3.906,10.351,17.441,17.441,0,0,1-7.226,14.649q-10.744,7.813-32.032,7.812-19.336,0-30.078-8.3T55.272,226.422l-55.078,8.4Q7.811,264.315,32.519,281.5Zm207.911,91.406h54.882V268.414q15.428,16.6,29.4,23.438a69.912,69.912,0,0,0,31.152,6.836q36.132,0,61.524-28.809t25.39-80.762q0-50.583-25.195-78.906t-61.328-28.32a74.3,74.3,0,0,0-37.7,9.766A76.592,76.592,0,0,0,291.6,117.047V86.578H240.429V372.906Zm67.578-232.129q13.28-15.526,33.4-15.527,19.337,0,32.422,15.82t13.086,48.438q0,34.963-12.695,50.293t-31.836,15.332q-19.921,0-33.789-16.7t-13.867-51.661Q294.726,156.305,308.007,140.777Zm233.2-82.324V7.672H486.327V58.453H541.21Zm0,235.547V86.578H486.327V294H541.21ZM786.132,165.094q0-24.024-3.028-36.914a60.545,60.545,0,0,0-10.742-23.047q-7.717-10.153-22.754-16.7a82.37,82.37,0,0,0-33.2-6.543q-41.213,0-68.359,35.156V86.578H597.069V294h54.883V200.055q0-34.763,4.2-47.657a39.366,39.366,0,0,1,15.528-20.7,44.016,44.016,0,0,1,25.586-7.812q11.132,0,19.043,5.469a30.484,30.484,0,0,1,11.425,15.332q3.516,9.864,3.516,43.457V294h54.883V165.094ZM894.726,294V227.594l25.585-26.758L972.46,294h59.18L955.663,162.359l70.9-75.781H958.983l-64.257,73.047V7.672H839.843V294h54.883ZM1118.55,129.645q8.205-5.76,22.86-5.762,21.675,0,29.49,6.738,7.8,6.738,7.81,22.559v5.468q-14.85,6.254-53.32,13.477-28.515,5.47-43.65,12.793a54.9,54.9,0,0,0-23.54,21.094q-8.4,13.769-8.4,31.347,0,26.565,18.46,43.946t50.49,17.383a86.18,86.18,0,0,0,34.18-6.836,99.086,99.086,0,0,0,30.08-20.508q0.585,1.565,1.95,6.445,3.12,10.745,5.27,16.211h54.3a117.194,117.194,0,0,1-9.86-27.832q-2.64-12.987-2.64-40.332l0.59-64.063q0-35.742-7.33-49.121T1200,90.582q-17.97-8.688-54.69-8.691-40.425,0-60.94,14.453t-28.9,44.531l49.8,8.984Q1110.355,135.408,1118.55,129.645Zm60.16,75.683q0,19.73-2.15,26.758-3.12,10.743-13.08,18.164-13.485,9.768-28.32,9.766-13.29,0-21.88-8.4a26.907,26.907,0,0,1-8.59-19.922q0-11.718,10.74-19.336,7.035-4.687,29.88-9.57t33.4-8.4v10.937Z" transform="translate(-0.188)"/>
  <path class="cls-2" d="M1641.86,376h0V269.147c0-74.492,60.51-134.881,135.14-134.881h0V241.119C1777,315.612,1716.5,376,1641.86,376Zm-34.35-71.092V150.226C1607.51,67.259,1540.13,0,1457,0h0V154.682c0,82.967,67.39,150.226,150.51,150.226h0ZM1744.07,64.291a51.105,51.105,0,1,1-51.11-51.005A51.056,51.056,0,0,1,1744.07,64.291Z" transform="translate(-0.188)"/>
</svg>
