<svg xmlns="http://www.w3.org/2000/svg" width="1228.219" height="250.531" viewBox="0 0 1228.219 250.531">
  <defs>
    <style>
      .cls-1 {
        fill-rule: evenodd;
      }
    </style>
  </defs>
  <path id="BOEHM" class="cls-1" d="M137.827,245.364a99.929,99.929,0,0,0,25.491-6.538,62.582,62.582,0,0,0,28.14-24.084,66.6,66.6,0,0,0,10.428-36.664q0-44.03-47.838-59.259,36.414-16.884,36.416-53.3a58.162,58.162,0,0,0-3.476-20.112,57.368,57.368,0,0,0-10.1-17.38,60.037,60.037,0,0,0-15.228-12.994A64.263,64.263,0,0,0,138.82,6.757,183.676,183.676,0,0,0,108.694,4.6H30.068q-15.728,0-22.76,7.035T0.273,34.731V217.142q0,15.728,6.869,22.926t22.926,7.2h74.157A259.6,259.6,0,0,0,137.827,245.364Zm1.324-97.578q12.911,8.279,12.911,26.65,0,35.921-49.824,35.919h-52.8V139.51h51.148Q126.239,139.51,139.151,147.786ZM89.327,41.518q26.815,0,39.892,6.042T142.3,71.975a29.853,29.853,0,0,1-4.138,15.56,27.1,27.1,0,0,1-15.312,13.242q-10.016,3.477-28.387,3.476H49.435V41.518H89.327ZM301.533,9.157a100.582,100.582,0,0,0-37.078,25.077Q249.224,50.622,241.2,73.961t-8.029,51.313a162.382,162.382,0,0,0,7.7,50.817q7.7,23.506,22.761,40.223A101.074,101.074,0,0,0,301.2,242.219q22.509,9.188,50.983,9.187,28.635,0,50.817-8.938a99.819,99.819,0,0,0,37.409-25.823,110.669,110.669,0,0,0,22.842-39.892q7.613-23.005,7.615-51.148,0-38.07-13.9-66.293A99.253,99.253,0,0,0,416,15.778Q388.932,0.469,351.191.467,323.383,0.467,301.533,9.157ZM411.692,173.774q-9.354,19.7-25.16,29.133a69.01,69.01,0,0,1-61.742,3.972,61.854,61.854,0,0,1-21.85-16.47q-9.52-11.005-14.732-27.725a125.354,125.354,0,0,1-5.214-37.41q0-20.523,5.214-37t14.236-27.064a59.848,59.848,0,0,1,21.518-16.139,66.383,66.383,0,0,1,27.229-5.545q20.691,0,36.665,10.014t24.581,29.547q8.6,19.534,8.607,46.182Q421.044,154.077,411.692,173.774ZM690.274,37.3q5.711-5.214,5.711-13.822a17.622,17.622,0,0,0-5.711-13.656Q684.564,4.6,672.811,4.6H543.038q-10.428,0-17.132,3.062a19.525,19.525,0,0,0-9.849,9.766q-3.147,6.7-3.145,17.3V217.142q0,15.891,7.035,23.008t23.091,7.118h133.58q11.584,0,17.463-5.38a18.086,18.086,0,0,0,5.877-13.987q0-8.939-5.877-14.318T676.618,208.2H562.073V139.179H664.038q11.421,0,16.884-5.214a17.813,17.813,0,0,0,5.462-13.491q0-8.276-5.545-13.325t-16.8-5.048H562.073V42.511H672.811Q684.562,42.511,690.274,37.3ZM781.645,7.833q-6.87-7.363-17.959-7.366-11.259,0-17.8,7.449t-6.538,22.346V221.446q0,14.9,6.621,22.429t17.712,7.531q10.924,0,17.877-7.449t6.952-22.511v-81.6h106.1v81.6q0,14.9,6.621,22.429t17.711,7.531q10.924,0,17.877-7.449t6.952-22.511V30.262q0-15.06-6.869-22.429T918.95,0.467q-10.925,0-17.628,7.449t-6.7,22.346V99.783h-106.1V30.262Q788.515,15.2,781.645,7.833Zm300.765,217.5a54.2,54.2,0,0,0,5.21,12.828,26.157,26.157,0,0,0,23.84,13.242q11.415,0,17.88-5.793a30.514,30.514,0,0,0,8.85-12.829q2.4-7.034,6.21-22.1l38.9-154.6V223.6q0,13.9,6.29,20.856a20.672,20.672,0,0,0,16.05,6.952q10.44,0,16.64-6.952t6.21-20.856V31.586q0-15.891-8.28-21.436T1197.86,4.6h-15.22q-13.755,0-19.95,2.483a16.757,16.757,0,0,0-9.19,8.938q-2.97,6.456-6.78,21.022l-35.26,132.919L1076.2,37.048q-3.81-14.564-6.79-21.022a16.708,16.708,0,0,0-9.18-8.938Q1054.02,4.6,1040.28,4.6h-15.23q-14.07,0-22.34,5.545t-8.279,21.436V223.6q0,14.07,6.289,20.939a20.992,20.992,0,0,0,16.22,6.869q10.26,0,16.47-6.952t6.21-20.856V56.084l38.9,154.6Q1080.5,218.3,1082.41,225.336Z" transform="translate(-0.281 -0.469)"/>
</svg>
